<svg width="30" height="30" viewBox="0 0 30 30" fill="none" xmlns="http://www.w3.org/2000/svg">
<path d="M28.8 0H1.2C0.53625 0 0 0.53625 0 1.2V28.8C0 29.4638 0.53625 30 1.2 30H28.8C29.4638 30 30 29.4638 30 28.8V1.2C30 0.53625 29.4638 0 28.8 0ZM25.335 8.75625H22.9388C21.06 8.75625 20.6963 9.64875 20.6963 10.9612V13.8525H25.1813L24.5963 18.3787H20.6963V30H16.02V18.3825H12.1088V13.8525H16.02V10.515C16.02 6.64125 18.3863 4.53 21.8438 4.53C23.5013 4.53 24.9225 4.65375 25.3388 4.71V8.75625H25.335Z" fill="#1778F2"/>
</svg>
