<svg width="30" height="30" viewBox="0 0 33 33" fill="none" xmlns="http://www.w3.org/2000/svg">
<path d="M16.437 1.37512e-06C7.35552 -0.00367088 0 7.34818 0 16.4223C0 23.5979 4.60133 29.6975 11.0094 31.9376C11.8724 32.1542 11.7402 31.541 11.7402 31.1223V28.2763C6.75694 28.8602 6.55497 25.5625 6.22079 25.0117C5.5451 23.8586 3.94767 23.5648 4.42506 23.014C5.55979 22.4301 6.71655 23.1609 8.05692 25.1402C9.02639 26.5761 10.9176 26.3337 11.8761 26.095C12.0854 25.232 12.5334 24.4609 13.1503 23.8623C7.98715 22.9369 5.83521 19.7861 5.83521 16.0404C5.83521 14.2226 6.43378 12.5518 7.6089 11.204C6.85977 8.98233 7.67868 7.0801 7.78884 6.79734C9.92242 6.60638 12.1405 8.325 12.3131 8.46087C13.5249 8.13404 14.9093 7.96144 16.459 7.96144C18.0161 7.96144 19.4042 8.14138 20.627 8.47188C21.042 8.15607 23.0985 6.67983 25.0815 6.85977C25.188 7.14253 25.9885 9.00069 25.2834 11.193C26.4733 12.5444 27.0792 14.23 27.0792 16.0514C27.0792 19.8045 24.9126 22.9589 19.7347 23.8696C20.1782 24.3058 20.5303 24.8259 20.7705 25.3997C21.0108 25.9735 21.1343 26.5894 21.1338 27.2114V31.3427C21.1632 31.6732 21.1338 32 21.6846 32C28.1882 29.8077 32.8703 23.664 32.8703 16.426C32.8703 7.34818 25.5111 1.37512e-06 16.437 1.37512e-06Z" fill="#171515"/>
</svg>
