<svg width="30" height="30" viewBox="0 0 30 30" fill="none" xmlns="http://www.w3.org/2000/svg">
<path d="M14.996 7.30341C10.7369 7.30341 7.29966 10.7407 7.29966 14.9997C7.29966 19.2588 10.7369 22.696 14.996 22.696C19.255 22.696 22.6923 19.2588 22.6923 14.9997C22.6923 10.7407 19.255 7.30341 14.996 7.30341ZM14.996 20.0018C12.2417 20.0018 9.99393 17.754 9.99393 14.9997C9.99393 12.2454 12.2417 9.99768 14.996 9.99768C17.7503 9.99768 19.998 12.2454 19.998 14.9997C19.998 17.754 17.7503 20.0018 14.996 20.0018ZM23.0075 5.19453C22.0131 5.19453 21.2101 5.99756 21.2101 6.99196C21.2101 7.98636 22.0131 8.78939 23.0075 8.78939C24.0019 8.78939 24.8049 7.99012 24.8049 6.99196C24.8052 6.75583 24.7589 6.52197 24.6687 6.30376C24.5785 6.08555 24.4461 5.88729 24.2791 5.72032C24.1122 5.55336 23.9139 5.42097 23.6957 5.33075C23.4775 5.24052 23.2436 5.19423 23.0075 5.19453V5.19453ZM29.9983 14.9997C29.9983 12.9284 30.0171 10.8758 29.9008 8.80815C29.7844 6.40657 29.2366 4.27517 27.4804 2.51902C25.7205 0.759114 23.5929 0.215007 21.1913 0.0986802C19.1199 -0.0176462 17.0673 0.00111615 14.9997 0.00111615C12.9284 0.00111615 10.8758 -0.0176462 8.80815 0.0986802C6.40658 0.215007 4.27517 0.762866 2.51902 2.51902C0.759114 4.27893 0.215007 6.40657 0.0986802 8.80815C-0.0176462 10.8795 0.00111615 12.9321 0.00111615 14.9997C0.00111615 17.0673 -0.0176462 19.1237 0.0986802 21.1913C0.215007 23.5929 0.762867 25.7243 2.51902 27.4804C4.27893 29.2403 6.40658 29.7844 8.80815 29.9008C10.8795 30.0171 12.9321 29.9983 14.9997 29.9983C17.0711 29.9983 19.1237 30.0171 21.1913 29.9008C23.5929 29.7844 25.7243 29.2366 27.4804 27.4804C29.2403 25.7205 29.7844 23.5929 29.9008 21.1913C30.0208 19.1237 29.9983 17.0711 29.9983 14.9997V14.9997ZM26.6962 23.848C26.4222 24.531 26.092 25.0413 25.5629 25.5667C25.0338 26.0958 24.5272 26.426 23.8443 26.6999C21.8705 27.4842 17.1837 27.3078 14.996 27.3078C12.8083 27.3078 8.1177 27.4842 6.1439 26.7037C5.46095 26.4297 4.95062 26.0995 4.42527 25.5704C3.89618 25.0413 3.56596 24.5347 3.29203 23.8518C2.51152 21.8742 2.68788 17.1874 2.68788 14.9997C2.68788 12.812 2.51152 8.12145 3.29203 6.14765C3.56596 5.46471 3.89618 4.95437 4.42527 4.42903C4.95437 3.90368 5.46095 3.56971 6.1439 3.29578C8.1177 2.51527 12.8083 2.69163 14.996 2.69163C17.1837 2.69163 21.8742 2.51527 23.848 3.29578C24.531 3.56971 25.0413 3.89993 25.5667 4.42903C26.0958 4.95812 26.426 5.46471 26.6999 6.14765C27.4804 8.12145 27.3041 12.812 27.3041 14.9997C27.3041 17.1874 27.4804 21.8742 26.6962 23.848Z" fill="url(#paint0_linear_150_28)"/>
<defs>
<linearGradient id="paint0_linear_150_28" x1="0" y1="29.9994" x2="29.9994" y2="-0.000558848" gradientUnits="userSpaceOnUse">
<stop stop-color="#405DE6"/>
<stop offset="0.2" stop-color="#5851DB"/>
<stop offset="0.4" stop-color="#833AB4"/>
<stop offset="0.6" stop-color="#C13584"/>
<stop offset="0.8" stop-color="#E1306C"/>
<stop offset="1" stop-color="#FD1D1D"/>
</linearGradient>
</defs>
</svg>
