<svg width="32" height="32" viewBox="0 0 32 32" fill="none" xmlns="http://www.w3.org/2000/svg">
<path d="M15.996 7.79045C11.4529 7.79045 7.78645 11.4569 7.78645 16C7.78645 20.5431 11.4529 24.2095 15.996 24.2095C20.5391 24.2095 24.2055 20.5431 24.2055 16C24.2055 11.4569 20.5391 7.79045 15.996 7.79045ZM15.996 21.3356C13.058 21.3356 10.6604 18.938 10.6604 16C10.6604 13.062 13.058 10.6644 15.996 10.6644C18.934 10.6644 21.3316 13.062 21.3316 16C21.3316 18.938 18.934 21.3356 15.996 21.3356ZM24.5418 5.54093C23.4811 5.54093 22.6245 6.39751 22.6245 7.45823C22.6245 8.51895 23.4811 9.37552 24.5418 9.37552C25.6025 9.37552 26.4591 8.52295 26.4591 7.45823C26.4594 7.20636 26.41 6.9569 26.3138 6.72414C26.2175 6.49138 26.0763 6.27989 25.8982 6.10179C25.7201 5.92369 25.5086 5.78248 25.2759 5.68623C25.0431 5.58999 24.7936 5.54062 24.5418 5.54093ZM31.9988 16C31.9988 13.7905 32.0188 11.601 31.8947 9.39554C31.7707 6.83381 31.1863 4.56027 29.313 2.68701C27.4357 0.809737 25.1662 0.229345 22.6045 0.105261C20.395 -0.018823 18.2055 0.00119058 16 0.00119058C13.7905 0.00119058 11.601 -0.018823 9.39554 0.105261C6.83381 0.229345 4.56027 0.813739 2.68701 2.68701C0.809737 4.56427 0.229345 6.83381 0.105261 9.39554C-0.018823 11.605 0.00119058 13.7945 0.00119058 16C0.00119058 18.2055 -0.018823 20.399 0.105261 22.6045C0.229345 25.1662 0.81374 27.4397 2.68701 29.313C4.56427 31.1903 6.83381 31.7707 9.39554 31.8947C11.605 32.0188 13.7945 31.9988 16 31.9988C18.2095 31.9988 20.399 32.0188 22.6045 31.8947C25.1662 31.7707 27.4397 31.1863 29.313 29.313C31.1903 27.4357 31.7707 25.1662 31.8947 22.6045C32.0228 20.399 31.9988 18.2095 31.9988 16ZM28.4764 25.4384C28.1842 26.1669 27.832 26.7112 27.2676 27.2716C26.7032 27.836 26.1629 28.1882 25.4344 28.4804C23.329 29.317 18.3296 29.1289 15.996 29.1289C13.6624 29.1289 8.65904 29.317 6.55362 28.4844C5.82513 28.1922 5.28076 27.84 4.72038 27.2756C4.156 26.7112 3.80376 26.1709 3.51156 25.4424C2.679 23.333 2.86713 18.3336 2.86713 16C2.86713 13.6664 2.679 8.66304 3.51156 6.55762C3.80376 5.82913 4.156 5.28476 4.72038 4.72438C5.28476 4.164 5.82513 3.80776 6.55362 3.51557C8.65904 2.683 13.6624 2.87113 15.996 2.87113C18.3296 2.87113 23.333 2.683 25.4384 3.51557C26.1669 3.80776 26.7112 4.16 27.2716 4.72438C27.836 5.28876 28.1882 5.82913 28.4804 6.55762C29.313 8.66304 29.1249 13.6664 29.1249 16C29.1249 18.3336 29.313 23.333 28.4764 25.4384Z" fill="#FF0087"/>
</svg>
