<svg width="30" height="30" viewBox="0 0 30 30" fill="none" xmlns="http://www.w3.org/2000/svg">
<path d="M24 0H6C3 0 0 3 0 6V25C0 28 3 30 6 30H24C27 30 30 27 30 24V6C30 3 27 0 24 0ZM8.89875 25.5637H4.4475V11.2462H8.89875V25.5637ZM6.675 9.28875C6.16472 9.28875 5.66591 9.13743 5.24163 8.85394C4.81735 8.57045 4.48666 8.16751 4.29139 7.69607C4.09612 7.22464 4.04502 6.70589 4.14457 6.20542C4.24412 5.70495 4.48985 5.24523 4.85066 4.88441C5.21148 4.52359 5.6712 4.27787 6.17167 4.17832C6.67214 4.07877 7.19089 4.12987 7.66232 4.32514C8.13376 4.52041 8.5367 4.8511 8.82019 5.27538C9.10369 5.69966 9.255 6.19847 9.255 6.70875C9.25125 8.13375 8.09625 9.28875 6.675 9.28875ZM25.5637 25.5637H21.1162V18.6C21.1162 16.9387 21.0862 14.805 18.8025 14.805C16.4887 14.805 16.1325 16.6125 16.1325 18.48V25.5637H11.6888V11.2462H15.9562V13.2037H16.0162C16.6087 12.0787 18.06 10.89 20.2275 10.89C24.735 10.89 25.5637 13.8562 25.5637 17.7112V25.5637Z" fill="#0A66C2"/>
</svg>
