<svg width="48" height="48" viewBox="0 0 48 48" fill="none" xmlns="http://www.w3.org/2000/svg">
<circle cx="24" cy="24" r="23.68" fill="" stroke="white" stroke-width="0.64"/>
<path d="M23.2105 13H24.7895C24.9298 13 25 13.0778 25 13.2333V33.7667C25 33.9222 24.9298 34 24.7895 34H23.2105C23.0702 34 23 33.9222 23 33.7667V13.2333C23 13.0778 23.0702 13 23.2105 13Z" fill="#212529"/>
<path d="M14.2326 23H33.7674C33.9225 23 34 23.0702 34 23.2105V24.7895C34 24.9298 33.9225 25 33.7674 25H14.2326C14.0775 25 14 24.9298 14 24.7895V23.2105C14 23.0702 14.0775 23 14.2326 23Z" fill="#212529"/>
</svg>
