<svg width="38" height="31" viewBox="0 0 38 31" fill="none" xmlns="http://www.w3.org/2000/svg">
<path d="M37.0668 4.49209C35.7088 5.07789 34.231 5.49949 32.7088 5.66369C34.2892 4.7248 35.4726 3.2415 36.0372 1.49209C34.5542 2.37429 32.9296 2.99291 31.2354 3.3205C30.5273 2.56351 29.6709 1.96047 28.7196 1.54893C27.7683 1.1374 26.7424 0.926196 25.7058 0.928485C21.512 0.928485 18.1393 4.32789 18.1393 8.49949C18.1393 9.08529 18.2103 9.67108 18.3257 10.2347C12.0461 9.90629 6.44549 6.90629 2.72212 2.3131C2.04368 3.4719 1.68816 4.79132 1.69254 6.1341C1.69254 8.76132 3.02833 11.0779 5.06531 12.4403C3.86489 12.393 2.69258 12.0631 1.64372 11.4773V11.5705C1.64372 15.2495 4.24431 18.2983 7.71028 18.9995C7.05951 19.1685 6.39005 19.255 5.71768 19.2569C5.22508 19.2569 4.7591 19.2081 4.28869 19.1415C5.24727 22.1415 8.03869 24.3205 11.3626 24.3915C8.76206 26.4285 5.50466 27.6267 1.96768 27.6267C1.33307 27.6267 0.74727 27.6045 0.139282 27.5335C3.49431 29.6859 7.47508 30.9285 11.7621 30.9285C25.6792 30.9285 33.2946 19.3989 33.2946 9.3915C33.2946 9.0631 33.2946 8.73469 33.2724 8.40629C34.7458 7.32789 36.0372 5.99209 37.0668 4.49209Z" fill="#1D9BF0"/>
</svg>
