<svg width="128" height="128" viewBox="0 0 128 128" fill="none" xmlns="http://www.w3.org/2000/svg">
<path d="M58 3.4641C61.7128 1.32051 66.2872 1.32051 70 3.4641L113.426 28.5359C117.138 30.6795 119.426 34.641 119.426 38.9282V89.0718C119.426 93.359 117.138 97.3205 113.426 99.4641L70 124.536C66.2872 126.679 61.7128 126.679 58 124.536L14.5744 99.4641C10.8616 97.3205 8.57438 93.359 8.57438 89.0718V38.9282C8.57438 34.641 10.8616 30.6795 14.5744 28.5359L58 3.4641Z" fill="#212529"/>
<path d="M39.2 50.76L36 50.28V48.28H43.44L56.76 67.8L59 72.04V50.76L55.52 50.28V48.28H64.96V50.28L61.76 50.76V78H58.6L45 58.04L41.92 52.76V75.64L45.72 76.04V78H36V76.04L39.2 75.6V50.76ZM81.5531 78.44C80.1665 78.44 78.9265 78.32 77.8331 78.08C76.7398 77.84 75.5398 77.52 74.2331 77.12C73.4331 76.8267 72.8331 76.6667 72.4331 76.64L72.7531 69.4H75.3131L75.9931 74.6C76.4465 75.0267 77.1798 75.4133 78.1931 75.76C79.2331 76.08 80.3665 76.24 81.5931 76.24C83.6198 76.24 85.1531 75.7867 86.1931 74.88C87.2598 73.9733 87.7931 72.72 87.7931 71.12C87.7931 70.08 87.4998 69.1867 86.9131 68.44C86.3531 67.6933 85.5931 67.0533 84.6331 66.52C83.6998 65.9867 82.4065 65.36 80.7531 64.64C79.2598 63.9733 77.9531 63.2933 76.8331 62.6C75.7398 61.9067 74.7798 60.9867 73.9531 59.84C73.1531 58.6667 72.7531 57.2667 72.7531 55.64C72.7531 54.1733 73.1398 52.8667 73.9131 51.72C74.7131 50.5467 75.8465 49.6267 77.3131 48.96C78.8065 48.2933 80.5398 47.96 82.5131 47.96C83.7398 47.96 84.8198 48.0533 85.7531 48.24C86.7131 48.4267 87.7931 48.68 88.9931 49C89.5265 49.1867 89.9798 49.3067 90.3531 49.36L90.1131 56.08H87.6731L86.8731 51.16C86.6065 50.8933 86.0465 50.64 85.1931 50.4C84.3665 50.16 83.4598 50.04 82.4731 50.04C80.6331 50.04 79.2331 50.4267 78.2731 51.2C77.3398 51.9733 76.8731 53.0933 76.8731 54.56C76.8731 55.6267 77.1531 56.52 77.7131 57.24C78.2998 57.96 79.0198 58.5733 79.8731 59.08C80.7265 59.5867 82.0865 60.28 83.9531 61.16C85.6865 61.9867 87.0998 62.7333 88.1931 63.4C89.2865 64.0667 90.2198 64.9467 90.9931 66.04C91.7931 67.1067 92.1931 68.3867 92.1931 69.88C92.1931 71.2933 91.7931 72.6533 90.9931 73.96C90.2198 75.2667 89.0198 76.3467 87.3931 77.2C85.7931 78.0267 83.8465 78.44 81.5531 78.44Z" fill="white"/>
</svg>
