<svg width="128" height="128" viewBox="0 0 128 128" fill="none" xmlns="http://www.w3.org/2000/svg">
<path d="M62 1.1547C63.2376 0.44017 64.7624 0.440169 66 1.1547L117.426 30.8453C118.663 31.5598 119.426 32.8803 119.426 34.3094V93.6906C119.426 95.1197 118.663 96.4402 117.426 97.1547L66 126.845C64.7624 127.56 63.2376 127.56 62 126.845L10.5744 97.1547C9.33677 96.4402 8.57438 95.1197 8.57438 93.6906V34.3094C8.57438 32.8803 9.33677 31.5598 10.5744 30.8453L62 1.1547Z" fill="#212529"/>
<path d="M34.528 47.928L30.688 47.4V45.336H38.416L55.408 69.96L58.144 74.76V47.928L53.92 47.4V45.336H64.864V47.4L60.928 47.928V81H58.432L41.248 56.28L37.312 49.896V78.504L41.68 78.936V81H30.688V78.936L34.528 78.456V47.928ZM84.778 81.528C83.146 81.528 81.706 81.384 80.458 81.096C79.21 80.808 77.77 80.408 76.138 79.896C75.05 79.544 74.394 79.352 74.17 79.32L74.554 70.776H77.05L77.77 77.064C78.378 77.64 79.338 78.136 80.65 78.552C81.994 78.968 83.45 79.176 85.018 79.176C87.61 79.176 89.594 78.584 90.97 77.4C92.346 76.216 93.034 74.584 93.034 72.504C93.034 71.16 92.666 70.024 91.93 69.096C91.226 68.168 90.298 67.384 89.146 66.744C88.026 66.104 86.458 65.352 84.442 64.488C82.554 63.688 80.938 62.888 79.594 62.088C78.282 61.288 77.13 60.216 76.138 58.872C75.146 57.496 74.65 55.864 74.65 53.976C74.65 52.216 75.13 50.648 76.09 49.272C77.05 47.896 78.378 46.84 80.074 46.104C81.802 45.336 83.77 44.952 85.978 44.952C87.322 44.952 88.506 45.064 89.53 45.288C90.586 45.48 91.914 45.8 93.514 46.248C94.378 46.504 94.89 46.648 95.05 46.68L94.762 54.552H92.362L91.498 48.6C91.114 48.28 90.362 47.976 89.242 47.688C88.154 47.368 86.986 47.208 85.738 47.208C83.37 47.208 81.562 47.704 80.314 48.696C79.066 49.656 78.442 51.096 78.442 53.016C78.442 54.328 78.778 55.432 79.45 56.328C80.122 57.192 80.986 57.928 82.042 58.536C83.098 59.144 84.73 59.96 86.938 60.984C89.242 62.072 91.034 63.016 92.314 63.816C93.626 64.584 94.762 65.608 95.722 66.888C96.714 68.136 97.21 69.656 97.21 71.448C97.21 73.144 96.714 74.776 95.722 76.344C94.73 77.88 93.29 79.128 91.402 80.088C89.514 81.048 87.306 81.528 84.778 81.528Z" fill="white"/>
</svg>
