<svg width="669" height="175" viewBox="0 0 669 175" fill="none" xmlns="http://www.w3.org/2000/svg">
<path d="M58 26.4641C61.7128 24.3205 66.2872 24.3205 70 26.4641L113.426 51.5359C117.138 53.6795 119.426 57.641 119.426 61.9282V112.072C119.426 116.359 117.138 120.321 113.426 122.464L70 147.536C66.2872 149.679 61.7128 149.679 58 147.536L14.5744 122.464C10.8616 120.321 8.57438 116.359 8.57438 112.072V61.9282C8.57438 57.641 10.8616 53.6795 14.5744 51.5359L58 26.4641Z" fill="#212529"/>
<path d="M39.2 73.76L36 73.28V71.28H43.44L56.76 90.8L59 95.04V73.76L55.52 73.28V71.28H64.96V73.28L61.76 73.76V101H58.6L45 81.04L41.92 75.76V98.64L45.72 99.04V101H36V99.04L39.2 98.6V73.76ZM81.5531 101.44C80.1665 101.44 78.9265 101.32 77.8331 101.08C76.7398 100.84 75.5398 100.52 74.2331 100.12C73.4331 99.8267 72.8331 99.6667 72.4331 99.64L72.7531 92.4H75.3131L75.9931 97.6C76.4465 98.0267 77.1798 98.4133 78.1931 98.76C79.2331 99.08 80.3665 99.24 81.5931 99.24C83.6198 99.24 85.1531 98.7867 86.1931 97.88C87.2598 96.9733 87.7931 95.72 87.7931 94.12C87.7931 93.08 87.4998 92.1867 86.9131 91.44C86.3531 90.6933 85.5931 90.0533 84.6331 89.52C83.6998 88.9867 82.4065 88.36 80.7531 87.64C79.2598 86.9733 77.9531 86.2933 76.8331 85.6C75.7398 84.9067 74.7798 83.9867 73.9531 82.84C73.1531 81.6667 72.7531 80.2667 72.7531 78.64C72.7531 77.1733 73.1398 75.8667 73.9131 74.72C74.7131 73.5467 75.8465 72.6267 77.3131 71.96C78.8065 71.2933 80.5398 70.96 82.5131 70.96C83.7398 70.96 84.8198 71.0533 85.7531 71.24C86.7131 71.4267 87.7931 71.68 88.9931 72C89.5265 72.1867 89.9798 72.3067 90.3531 72.36L90.1131 79.08H87.6731L86.8731 74.16C86.6065 73.8933 86.0465 73.64 85.1931 73.4C84.3665 73.16 83.4598 73.04 82.4731 73.04C80.6331 73.04 79.2331 73.4267 78.2731 74.2C77.3398 74.9733 76.8731 76.0933 76.8731 77.56C76.8731 78.6267 77.1531 79.52 77.7131 80.24C78.2998 80.96 79.0198 81.5733 79.8731 82.08C80.7265 82.5867 82.0865 83.28 83.9531 84.16C85.6865 84.9867 87.0998 85.7333 88.1931 86.4C89.2865 87.0667 90.2198 87.9467 90.9931 89.04C91.7931 90.1067 92.1931 91.3867 92.1931 92.88C92.1931 94.2933 91.7931 95.6533 90.9931 96.96C90.2198 98.2667 89.0198 99.3467 87.3931 100.2C85.7931 101.027 83.8465 101.44 81.5531 101.44Z" fill="white"/>
<path d="M156.848 58.64L149.36 57.392V50.672H173.456L199.952 91.568L205.328 103.088V58.64L197.168 57.392V50.672H221.744V57.392L214.448 58.64V122H200.336L172.208 78.128L165.872 65.456V114.608L176.048 115.664V122H149.36V115.664L156.848 114.608V58.64ZM243.794 60.368C241.298 60.368 239.282 59.632 237.746 58.16C236.21 56.688 235.442 54.8 235.442 52.496C235.442 49.808 236.274 47.6 237.938 45.872C239.666 44.144 241.97 43.28 244.85 43.28C247.73 43.28 249.938 44.016 251.474 45.488C253.01 46.96 253.778 48.848 253.778 51.152C253.778 53.904 252.914 56.144 251.186 57.872C249.458 59.536 247.026 60.368 243.89 60.368H243.794ZM237.938 78.704L231.506 76.88V69.68L250.706 67.376H250.898L253.874 69.392V114.8L259.634 115.664V122H231.986V115.664L237.938 114.8V78.704ZM283.101 114.032C283.549 114.736 284.573 115.376 286.173 115.952C287.837 116.528 289.501 116.816 291.165 116.816C293.789 116.816 295.773 116.272 297.117 115.184C298.525 114.032 299.229 112.56 299.229 110.768C299.229 108.848 298.333 107.28 296.541 106.064C294.749 104.784 291.805 103.248 287.709 101.456L284.061 99.824C279.901 97.968 276.765 95.728 274.653 93.104C272.605 90.416 271.581 87.024 271.581 82.928C271.581 79.984 272.445 77.36 274.173 75.056C275.901 72.688 278.397 70.832 281.661 69.488C284.925 68.144 288.765 67.472 293.181 67.472C296.253 67.472 298.909 67.664 301.149 68.048C303.389 68.432 305.661 68.912 307.965 69.488C309.501 69.936 310.653 70.192 311.421 70.256V83.312H302.877L300.381 75.92C300.061 75.344 299.293 74.832 298.077 74.384C296.861 73.872 295.485 73.616 293.949 73.616C291.517 73.616 289.597 74.16 288.189 75.248C286.781 76.272 286.077 77.68 286.077 79.472C286.077 81.52 286.877 83.152 288.477 84.368C290.077 85.52 292.637 86.896 296.157 88.496L298.173 89.36C303.357 91.536 307.421 93.904 310.365 96.464C313.309 98.96 314.781 102.416 314.781 106.832C314.781 111.568 312.893 115.472 309.117 118.544C305.341 121.552 299.773 123.056 292.413 123.056C289.021 123.056 286.013 122.768 283.389 122.192C280.765 121.68 277.885 120.976 274.749 120.08L271.581 119.216V106.448H280.701L283.101 114.032ZM325.563 95.696C325.563 90 326.715 85.008 329.019 80.72C331.323 76.432 334.555 73.136 338.715 70.832C342.875 68.464 347.675 67.28 353.115 67.28C355.803 67.28 358.107 67.472 360.027 67.856C362.011 68.176 364.027 68.656 366.075 69.296C367.931 69.808 369.083 70.096 369.531 70.16L368.859 87.536H359.163L356.667 76.496C356.475 75.664 355.931 75.088 355.035 74.768C354.203 74.384 353.179 74.192 351.963 74.192C348.955 74.192 346.587 75.664 344.859 78.608C343.195 81.552 342.363 86.448 342.363 93.296C342.363 99.824 343.419 104.848 345.531 108.368C347.707 111.824 350.619 113.552 354.267 113.552C359.003 113.552 363.355 112.336 367.323 109.904L369.915 115.568C368.379 117.296 365.851 118.992 362.331 120.656C358.811 122.256 354.907 123.056 350.619 123.056C342.235 123.056 335.963 120.592 331.803 115.664C327.643 110.672 325.563 104.016 325.563 95.696ZM385.989 52.688L379.173 51.44V45.584L398.469 43.28H398.757L401.541 45.296L401.637 66.128L400.869 74.672C402.853 72.816 405.477 71.184 408.741 69.776C412.005 68.304 415.589 67.568 419.493 67.568C423.525 67.568 426.661 68.304 428.902 69.776C431.141 71.248 432.709 73.488 433.605 76.496C434.501 79.504 434.949 83.504 434.949 88.496V114.8L440.806 115.664V122H414.117V115.664L419.205 114.8V88.592C419.205 84.112 418.725 81.008 417.765 79.28C416.805 77.488 414.853 76.592 411.909 76.592C410.117 76.592 408.325 77.008 406.533 77.84C404.741 78.608 403.237 79.568 402.021 80.72V114.8L407.301 115.664V122H380.997V115.664L385.989 114.8V52.688ZM450.094 106.64C450.094 101.008 452.942 96.688 458.638 93.68C464.398 90.672 471.95 89.136 481.294 89.072V87.152C481.294 84.848 481.038 83.024 480.526 81.68C480.014 80.336 479.086 79.344 477.742 78.704C476.398 78 474.414 77.648 471.79 77.648C468.654 77.648 465.838 78.032 463.342 78.8C460.91 79.504 458.35 80.464 455.662 81.68L452.398 74.768C453.422 73.936 455.086 72.944 457.39 71.792C459.694 70.576 462.446 69.552 465.646 68.72C468.91 67.824 472.302 67.376 475.822 67.376C480.942 67.376 484.942 68.048 487.822 69.392C490.766 70.736 492.846 72.816 494.062 75.632C495.342 78.448 495.982 82.288 495.982 87.152V115.664H500.974V121.712C499.502 122.032 497.454 122.352 494.83 122.672C492.206 122.992 489.966 123.152 488.11 123.152C485.678 123.152 484.046 122.8 483.214 122.096C482.446 121.392 482.062 119.984 482.062 117.872V115.664C480.462 117.584 478.318 119.312 475.63 120.848C472.942 122.32 469.838 123.056 466.318 123.056C463.31 123.056 460.558 122.416 458.062 121.136C455.63 119.792 453.678 117.904 452.206 115.472C450.798 112.976 450.094 110.032 450.094 106.64ZM473.806 114.224C474.958 114.224 476.238 113.904 477.646 113.264C479.054 112.56 480.27 111.728 481.294 110.768V95.504C476.302 95.504 472.59 96.4 470.158 98.192C467.79 99.984 466.606 102.288 466.606 105.104C466.606 107.984 467.246 110.224 468.526 111.824C469.806 113.424 471.566 114.224 473.806 114.224ZM515.98 52.688L509.26 51.44V45.584L528.46 43.28H528.748L531.532 45.296V114.8L537.772 115.664V122H509.836V115.664L515.98 114.8V52.688ZM601.233 123.056C597.713 123.056 594.449 122.768 591.441 122.192C588.497 121.616 585.393 120.848 582.129 119.888C580.017 119.248 578.481 118.896 577.521 118.832L578.385 100.88H587.313L589.713 113.168C590.417 114 591.697 114.736 593.553 115.376C595.473 116.016 597.745 116.336 600.369 116.336C604.273 116.336 607.185 115.472 609.105 113.744C611.089 112.016 612.081 109.648 612.081 106.64C612.081 104.528 611.441 102.704 610.161 101.168C608.945 99.568 607.217 98.128 604.977 96.848C602.801 95.504 599.793 93.968 595.953 92.24C590.897 89.936 586.609 87.024 583.089 83.504C579.633 79.92 577.905 75.216 577.905 69.392C577.905 65.808 578.833 62.544 580.689 59.6C582.545 56.656 585.361 54.288 589.137 52.496C592.913 50.704 597.617 49.808 603.249 49.808C606.641 49.808 609.585 50.032 612.081 50.48C614.641 50.928 617.361 51.536 620.241 52.304C621.777 52.816 622.961 53.104 623.793 53.168L623.217 70.256H614.481L612.273 58.448C611.825 57.872 610.801 57.36 609.201 56.912C607.665 56.4 605.937 56.144 604.017 56.144C600.497 56.144 597.841 56.976 596.049 58.64C594.321 60.304 593.457 62.448 593.457 65.072C593.457 67.376 594.193 69.392 595.665 71.12C597.137 72.848 598.897 74.32 600.945 75.536C603.057 76.688 606.257 78.32 610.545 80.432C613.937 82.096 616.881 83.792 619.377 85.52C621.937 87.184 624.113 89.36 625.905 92.048C627.697 94.736 628.593 97.872 628.593 101.456C628.593 104.976 627.729 108.368 626.001 111.632C624.337 114.896 621.457 117.616 617.361 119.792C613.265 121.968 607.889 123.056 601.233 123.056ZM649.654 122.768C647.478 122.768 645.558 122 643.894 120.464C642.294 118.928 641.494 117.04 641.494 114.8C641.494 112.24 642.422 110.16 644.278 108.56C646.134 106.896 648.438 106.064 651.19 106.064C653.686 106.064 655.702 106.864 657.238 108.464C658.774 110.064 659.542 111.952 659.542 114.128C659.542 116.816 658.646 118.928 656.854 120.464C655.062 122 652.662 122.768 649.654 122.768Z" fill="#212529"/>
</svg>
